<svg width="13" height="12" viewBox="0 0 13 12" fill="none" xmlns="http://www.w3.org/2000/svg">
<path d="M5.06835 2.02419C5.51738 0.642221 7.48262 0.642221 7.93165 2.02419C8.26633 3.05424 9.23128 3.75532 10.3143 3.75532C11.7674 3.75532 12.3747 5.62437 11.1992 6.47847C10.3229 7.11508 9.95436 8.24945 10.289 9.27951C10.7381 10.6615 9.14816 11.8166 7.97259 10.9625C7.09637 10.3259 5.90363 10.3259 5.02741 10.9625C3.85184 11.8166 2.26193 10.6615 2.71096 9.27951C3.04564 8.24945 2.67706 7.11508 1.80085 6.47847C0.625275 5.62437 1.23257 3.75532 2.68565 3.75532C3.76872 3.75532 4.73367 3.05424 5.06835 2.02419Z" fill="#FFD151" stroke="#EEEEEE"/>
</svg>
